<svg width="24" height="24" viewBox="0 0 24 24" fill="none" xmlns="http://www.w3.org/2000/svg">
<path fill-rule="evenodd" clip-rule="evenodd" d="M14.25 2C14.6642 2 15 2.33579 15 2.75V8H19.5C19.9142 8 20.25 8.33579 20.25 8.75V20.75C20.25 20.8118 20.2397 20.8712 20.2256 20.9287C20.2193 20.9545 20.2111 20.9792 20.2021 21.0039C20.1946 21.0248 20.1871 21.0454 20.1777 21.0654C20.1665 21.0895 20.1533 21.1121 20.1396 21.1348C20.1297 21.1513 20.1205 21.168 20.1094 21.1836C20.0928 21.2069 20.0738 21.2278 20.0547 21.249C20.0423 21.2628 20.0309 21.2772 20.0176 21.29C19.9968 21.31 19.9741 21.3273 19.9512 21.3447C19.9365 21.3559 19.9227 21.3679 19.9072 21.3779C19.8836 21.3933 19.8583 21.4053 19.833 21.418C19.8163 21.4263 19.8005 21.4363 19.7832 21.4434C19.7534 21.4556 19.7221 21.4634 19.6904 21.4717C19.675 21.4757 19.6603 21.4823 19.6445 21.4854C19.6413 21.486 19.638 21.4857 19.6348 21.4863C19.591 21.4943 19.5461 21.5 19.5 21.5H9C8.95356 21.5 8.90836 21.4944 8.86426 21.4863C8.86104 21.4857 8.85769 21.486 8.85449 21.4854C8.83874 21.4823 8.82397 21.4757 8.80859 21.4717C8.777 21.4633 8.74564 21.4556 8.71582 21.4434C8.69849 21.4363 8.68266 21.4263 8.66602 21.418C8.64072 21.4053 8.61536 21.3933 8.5918 21.3779C8.57636 21.3679 8.56248 21.3559 8.54785 21.3447C8.52494 21.3273 8.50218 21.31 8.48145 21.29C8.46811 21.2772 8.45669 21.2628 8.44434 21.249C8.42529 21.2278 8.40621 21.2069 8.38965 21.1836C8.37853 21.168 8.36929 21.1512 8.35938 21.1348C8.34577 21.1122 8.3325 21.0895 8.32129 21.0654C8.31198 21.0454 8.30442 21.0248 8.29688 21.0039C8.28798 20.9793 8.27975 20.9545 8.27344 20.9287C8.25936 20.8713 8.25 20.8118 8.25 20.75V15.5H3.75C3.36183 15.5 3.04253 15.2051 3.00391 14.8271L3 14.75V2.75C3 2.33579 3.33579 2 3.75 2H14.25ZM4.5 14H8.25V8.75C8.25 8.33579 8.58579 8 9 8H13.5V3.5H4.5V14Z" fill="#141410"/>
</svg>
