<svg width="24" height="24" viewBox="0 0 24 24" fill="none" xmlns="http://www.w3.org/2000/svg">
<path fill-rule="evenodd" clip-rule="evenodd" d="M11.9591 14.0869L6.29599 19.749L9.95615 19.6963C10.4767 19.6887 10.9002 20.1132 10.8927 20.6338C10.8852 21.1332 10.482 21.5367 9.98252 21.5439L3.91123 21.6318L3.8165 21.6289C3.3514 21.5883 2.99325 21.1999 3.0001 20.7217L3.08896 14.6426C3.09642 14.1448 3.49841 13.7465 3.99619 13.7393C4.52021 13.7318 4.94327 14.1586 4.93564 14.6826L4.88193 18.335L10.545 12.6738L11.9591 14.0869ZM20.8106 3.00293C21.2759 3.04343 21.634 3.4327 21.6271 3.91113L21.5382 9.98926C21.5309 10.4873 21.129 10.8864 20.631 10.8936C20.1073 10.9008 19.6841 10.4739 19.6915 9.9502L19.7442 6.2959L14.0831 11.959L12.6681 10.5449L18.3302 4.88184L14.671 4.93555C14.1507 4.94291 13.727 4.51935 13.7345 3.99902C13.7417 3.49952 14.1451 3.09624 14.6446 3.08887L20.7169 3L20.8106 3.00293Z" fill="#141410"/>
</svg>
