<svg width="24" height="24" viewBox="0 0 24 24" fill="none" xmlns="http://www.w3.org/2000/svg">
<path d="M11.3221 11.8387C11.8146 11.8815 12.1936 12.2932 12.1863 12.7996L12.0926 19.2351C12.0849 19.7624 11.6589 20.1846 11.1316 20.1922C10.5769 20.2 10.1294 19.7479 10.1375 19.1931L10.1932 15.325L4.64824 20.8709C4.37255 21.1463 3.81358 21.0343 3.40019 20.6209C2.98705 20.2075 2.8758 19.6494 3.15117 19.3738L8.69511 13.8279L4.82206 13.8846C4.27104 13.8926 3.82205 13.4443 3.82988 12.8933C3.83757 12.3644 4.26483 11.9372 4.79374 11.9295L11.2225 11.8357L11.3221 11.8387Z" fill="#141410"/>
<path d="M19.3738 3.15116C19.6494 2.8758 20.2075 2.98706 20.6209 3.40018C21.0343 3.81357 21.1463 4.37254 20.8709 4.64823L15.325 10.1931L19.2 10.1365C19.7511 10.1285 20.2002 10.5776 20.1922 11.1287C20.1845 11.6576 19.7572 12.0849 19.2283 12.0926L12.7996 12.1853L12.7 12.1824C12.2074 12.1395 11.8284 11.728 11.8357 11.2215L11.9295 4.78592C11.9373 4.25891 12.3624 3.83661 12.8894 3.82889C13.4443 3.82092 13.8925 4.27313 13.8846 4.82791L13.8279 8.6951L19.3738 3.15116Z" fill="#141410"/>
</svg>
