<svg width="24" height="24" viewBox="0 0 24 24" fill="none" xmlns="http://www.w3.org/2000/svg">
<path fill-rule="evenodd" clip-rule="evenodd" d="M18 8.25C20.0711 8.25 21.75 9.92893 21.75 12C21.75 14.0711 20.0711 15.75 18 15.75H6C3.92893 15.75 2.25 14.0711 2.25 12C2.25 9.92893 3.92893 8.25 6 8.25C8.07107 8.25 9.75 9.92893 9.75 12C9.75 12.8443 9.47083 13.6232 9 14.25H15C14.5292 13.6232 14.25 12.8443 14.25 12C14.25 9.92893 15.9289 8.25 18 8.25ZM6 9.75C4.75736 9.75 3.75 10.7574 3.75 12C3.75 13.2426 4.75736 14.25 6 14.25C7.24264 14.25 8.25 13.2426 8.25 12C8.25 10.7574 7.24264 9.75 6 9.75ZM18 9.75C16.7574 9.75 15.75 10.7574 15.75 12C15.75 13.2426 16.7574 14.25 18 14.25C19.2426 14.25 20.25 13.2426 20.25 12C20.25 10.7574 19.2426 9.75 18 9.75Z" fill="#141410"/>
</svg>
