<svg width="24" height="24" viewBox="0 0 24 24" fill="none" xmlns="http://www.w3.org/2000/svg">
<path d="M5.33947 3.84253C5.60078 3.58131 6.04374 3.22508 6.62525 3.01803C7.24809 2.79637 8.09441 2.73399 8.92265 3.23141L9.20163 3.41095C10.5826 4.36297 11.6949 6.0712 11.6965 7.92359C11.6976 9.13406 11.1429 9.87318 10.747 10.3411C10.3842 10.77 10.3371 10.8298 10.3161 10.9115C10.3239 10.9423 10.3561 11.0966 10.5489 11.4053C10.7897 11.791 11.1458 12.1983 11.4894 12.5419L10.4287 13.6025L10.1345 13.2959C9.48195 12.5911 8.7783 11.6359 8.81493 10.8314L8.83703 10.6491C9.04894 9.58499 10.0595 9.31935 10.1843 8.16804L10.1967 7.92497C10.1955 6.56248 9.28596 5.19875 8.14994 4.51649C7.44163 4.09137 6.71862 4.58488 6.40013 4.90319C3.54544 7.75789 5.00083 11.6506 8.29012 15.0865L8.61398 15.4173C12.0189 18.8222 15.9283 20.4734 18.8484 17.8942L19.1281 17.6311C19.4265 17.3325 19.879 16.6782 19.5838 16.0139L19.5148 15.8813C18.8325 14.7453 17.4688 13.8358 16.1063 13.8346L15.8632 13.847C14.7119 13.9717 14.4463 14.9823 13.3821 15.1942L13.1998 15.2163C12.2716 15.2586 11.142 14.3159 10.4287 13.6025L11.4894 12.5419C11.833 12.8855 12.2403 13.2415 12.626 13.4824C12.932 13.6735 13.0864 13.7063 13.119 13.7144C13.201 13.6935 13.2604 13.6477 13.6901 13.2842C14.1581 12.8883 14.8972 12.3336 16.1077 12.3347C18.0832 12.3365 19.8947 13.6017 20.7998 15.1086C21.2973 15.9368 21.2349 16.7832 21.0132 17.406C20.8062 17.9875 20.4499 18.4305 20.1887 18.6918C18.2958 20.5847 15.9768 21.001 13.6991 20.3974C11.5198 19.8197 9.40455 18.3292 7.55332 16.4779C5.70209 14.6267 4.21152 12.5114 3.63385 10.3322C3.03022 8.05443 3.44652 5.73548 5.33947 3.84253Z" fill="#141410"/>
</svg>
