<svg width="24" height="24" viewBox="0 0 24 24" fill="none" xmlns="http://www.w3.org/2000/svg">
<path fill-rule="evenodd" clip-rule="evenodd" d="M20.3416 3.75C21.8718 3.75 23.25 4.88434 23.25 6.44385V17.5562C23.25 19.1157 21.8718 20.25 20.3416 20.25H3.65845C2.12819 20.25 0.750001 19.1157 0.75 17.5562V6.44385C0.75 4.88434 2.12818 3.75 3.65845 3.75H20.3416ZM12.7324 14.6104C12.3111 14.9715 11.6889 14.9715 11.2676 14.6104L2.25 6.87964V17.5562C2.25 18.1434 2.80506 18.75 3.65845 18.75H20.3416C21.1949 18.75 21.75 18.1434 21.75 17.5562V6.87964L12.7324 14.6104ZM3.65845 5.25C3.35935 5.25 3.09756 5.32568 2.88281 5.44775L12 13.262L21.1165 5.44775C20.9018 5.32586 20.6404 5.25 20.3416 5.25H3.65845Z" fill="#141410"/>
</svg>
