<svg width="24" height="24" viewBox="0 0 24 24" fill="none" xmlns="http://www.w3.org/2000/svg">
<path fill-rule="evenodd" clip-rule="evenodd" d="M20.4998 3C21.6038 3 22.4999 3.89461 22.5 4.99951V15.7954C22.4998 16.9001 21.6038 17.7949 20.4998 17.7949H5.98462L2.81909 21.4878L1.5 21V4.99951C1.50014 3.89461 2.39621 3 3.50024 3H20.4998ZM3.50024 4.5C3.22371 4.5 3.00008 4.72389 3 4.99951V18.9734L5.07129 16.5571L5.64038 16.2949H20.4998C20.7417 16.2949 20.9431 16.1234 20.9897 15.8958L21 15.7954V4.99951C20.9999 4.72389 20.7763 4.5 20.4998 4.5H3.50024Z" fill="#141410"/>
</svg>
