<svg width="40" height="40" viewBox="0 0 40 40" fill="none" xmlns="http://www.w3.org/2000/svg">
<rect width="40" height="40" rx="20" fill="#003AB3"/>
<path fill-rule="evenodd" clip-rule="evenodd" d="M33.0066 18.6699C33.1374 19.7341 31.9771 20.4467 32.1092 21.5235C33.1004 20.404 34.7311 18.3635 35.3562 19.4717C35.9386 20.5031 35.6472 21.7558 34.7869 22.5117C34.1592 23.0639 33.4897 23.3769 32.574 23.3555C32.1439 24.5051 31.8574 25.6613 31.6121 26.9492C30.0322 26.426 30.9952 24.2412 31.5486 22.5645C31.0833 21.1079 31.7199 19.69 33.0066 18.6699ZM6.19413 14.0352C13.1811 13.6178 19.1317 19.1768 16.5125 22.1153C14.9956 23.8158 12.623 23.9791 10.4344 23.5352C10.3224 23.827 10.0931 24.1239 9.89433 24.1377C9.13462 24.1943 9.47813 23.0686 8.95487 22.8448C7.93224 22.407 7.02113 21.6979 6.40604 20.7432C5.79124 19.7885 7.7928 19.1333 9.27323 18.8692L9.62284 16.6133C10.2316 16.8385 10.2527 17.2403 10.3182 17.7032L10.4695 18.7793H10.4705C12.2982 18.729 14.6533 19.3195 14.1766 20.6026C13.969 21.161 13.27 21.2581 12.8172 21.0342L13.4617 20.376C12.4127 19.9571 11.5104 19.8588 10.3758 19.7393C10.3368 20.7569 10.3394 21.6303 10.4148 22.668C11.9079 23.0051 13.38 22.8786 14.7322 22.2295C15.7949 21.72 16.265 20.6285 15.8084 19.5166C15.4738 18.7029 14.9142 18.036 14.2312 17.4424C11.6414 15.4992 8.47047 14.4939 5.24296 14.836L4.97147 14.9405C4.90613 14.9656 5.00359 15.1029 5.07401 15.1182L5.366 15.1826C5.41254 15.1927 5.43485 15.3433 5.39335 15.3672C5.12934 15.5216 4.81027 15.446 4.47343 15.3203C4.13632 15.1946 4.63312 14.1283 6.19413 14.0352ZM30.3465 18.8448C30.8709 18.7781 31.4291 19.1218 31.3514 19.7178L29.825 19.8555C29.693 19.8668 29.3669 19.913 29.3465 20.0274L29.2625 20.5147L30.2879 20.5078C30.4376 20.5084 30.6721 20.7849 30.6482 20.9131C30.6243 21.0413 30.3847 21.2243 30.2488 21.2246L28.9578 21.2315L28.6648 22.1358L28.6658 22.1367L30.3328 21.9121C30.4232 21.8996 30.6637 21.9821 30.7234 22.0449C31.2241 22.5909 28.5354 24.0223 27.8084 22.9532C27.338 22.2613 27.9583 21.6813 27.9822 20.7266C28.1925 20.5865 28.6353 20.0824 28.5008 19.8662C28.1791 19.6426 28.0001 19.5263 27.7801 19.168L30.3465 18.8448ZM25.993 18.1924C26.0621 17.7471 27.8242 19.7392 27.3728 21.8926C27.2936 22.2674 26.8636 22.9783 26.4725 22.8135C25.5091 22.4059 25.3626 21.2612 24.6834 20.5254L24.5232 22.6641C24.5144 22.7847 24.3155 23.0318 24.2273 23.1026C23.6575 23.5592 23.343 20.8473 24.4021 19.0762C24.7028 19.2171 24.9858 19.439 25.1707 19.7119L26.4383 21.5869C26.6972 20.3783 25.8509 19.1118 25.993 18.1924ZM18.0828 18.8242L18.4851 19.0576L18.6971 22.7764C18.5851 22.9537 18.3001 23.1182 18.0926 23.1094C17.2478 23.0705 17.7608 18.6356 18.0828 18.8242ZM19.118 19.8028C19.4878 18.7764 21.9969 18.5297 23.5076 18.9824C23.7539 20.0136 21.5231 19.3183 19.8201 19.9873L22.8787 20.5596C23.5843 20.6917 23.6913 22.0938 23.1141 22.5303C22.07 23.319 20.6033 23.1762 19.6121 22.4014C19.4021 22.2367 19.2692 21.7964 19.3269 21.5938L19.326 21.5918C19.5466 20.8238 21.1205 20.8063 22.285 21.4727C21.2813 22.539 20.0555 20.848 19.5926 21.8701C20.6755 22.319 21.7989 22.1046 22.8328 21.5977C22.6768 21.2228 22.3113 20.9825 21.9139 20.9385L19.3494 20.6524C19.1647 20.5303 19.0428 20.013 19.118 19.8028ZM9.283 19.834C8.21018 19.8692 7.34501 19.9234 6.48222 20.4239C7.18152 21.4148 8.09565 21.8954 9.19608 22.2149V22.2139L9.283 19.834ZM34.8709 19.9912C34.1603 20.6604 33.6802 21.2544 33.2576 22.1348C34.5089 22.0817 35.4643 20.8251 34.8709 19.9912ZM18.4012 15.0606C19.2263 14.814 20.3234 15.3159 20.8064 15.7549C21.4154 16.3088 19.9078 18.1013 18.3572 18.0713V18.0703C17.766 18.059 17.5931 18.07 17.0623 18.3467L16.8689 17.6035C16.5961 17.0918 16.4866 16.6503 16.8396 16.126C17.1931 15.6015 17.781 15.2455 18.4012 15.0606ZM20.3846 16.3623C20.216 15.3887 18.8082 16.2198 18.0057 17.294C18.9288 17.4675 19.8374 17.1785 20.3846 16.3623Z" fill="white"/>
</svg>
