<svg width="40" height="40" viewBox="0 0 40 40" fill="none" xmlns="http://www.w3.org/2000/svg">
<rect width="40" height="40" rx="20" fill="black"/>
<path d="M29.6191 14C32.5382 14.1714 34.8506 16.5297 34.9932 19.5029C35.1638 23.0634 32.1624 26.0315 28.6221 25.6309C27.6299 25.5186 26.697 25.1613 25.8965 24.5518C25.1505 23.9836 24.5514 23.2569 24.125 22.4189C24.0796 23.5304 23.4297 24.4991 22.5371 25.083C21.9943 25.4275 21.3926 25.6086 20.7451 25.6084L15.8877 25.6055V14.1826L21.2041 14.1855C21.6758 14.1858 22.0943 14.3672 22.4941 14.5938C23.391 15.1668 24.0597 16.1479 24.1211 17.2617C24.4105 16.6395 24.8109 16.1012 25.291 15.6221C26.2737 14.6422 27.5535 14.0743 28.917 14H29.6191ZM15.2217 14.1621L15.2227 25.6074H12.1533V21.166H10.1621V25.6074L7 25.5986V14.168L10.1621 14.1602V18.4189L12.1533 18.418V14.1592L15.2217 14.1621ZM18.8008 22.9453H20.3965C20.5765 22.9262 20.7195 22.8556 20.8584 22.7266C21.239 22.3231 21.2514 21.6992 20.9014 21.2812C20.7584 21.1251 20.5875 21.0253 20.375 21.0156H18.8008V22.9453ZM29.3291 16.8965C27.7404 16.8675 26.4453 18.1497 26.4102 19.7393C26.3751 21.3288 27.6071 22.6715 29.208 22.71C30.8219 22.7486 32.1214 21.4406 32.1436 19.8438C32.1652 18.2567 30.9176 16.9256 29.3291 16.8965ZM29.3525 17.5195C30.5837 17.5608 31.5424 18.5953 31.5312 19.8242C31.5208 20.9738 30.6633 21.9499 29.5283 22.0762L29.2979 22.0898C28.0156 22.1012 27.0115 21.0405 27.0225 19.7832C27.0339 18.5102 28.1213 17.4783 29.3525 17.5195ZM23.5557 19.1172C23.2281 19.4257 22.8808 19.6805 22.4492 19.8037C22.5772 19.8421 22.7023 19.8952 22.8379 19.9727C23.1275 20.1651 23.3737 20.3868 23.5674 20.6582C23.4935 20.1462 23.5044 19.648 23.5557 19.1172ZM18.8057 18.6562H20.3691C20.5863 18.646 20.7656 18.5486 20.917 18.3779C21.2424 17.9745 21.2396 17.4046 20.9209 17.0078C20.7672 16.8273 20.5664 16.7215 20.3291 16.7236H18.8057V18.6562Z" fill="white"/>
</svg>
