<svg width="40" height="40" viewBox="0 0 40 40" fill="none" xmlns="http://www.w3.org/2000/svg">
<rect x="0.5" y="0.5" width="39" height="39" rx="19.5" stroke="#0B0B0A" stroke-opacity="0.15"/>
<rect width="40" height="40.0003" rx="20" fill="white"/>
<g clip-path="url(#clip0_18814_2438)">
<path d="M25.2127 11.1109C27.2214 11.1109 28.869 19.6058 28.869 30.0611H31.7804C31.7804 18.7946 28.8464 9.64624 25.2127 9.64624C23.1589 9.64624 21.3081 12.3953 20.112 16.6765C18.8932 12.3953 17.0651 9.64624 14.9887 9.64624C11.3549 9.64624 8.4209 18.7946 8.4209 30.0611H11.3324C11.3324 19.5833 12.9574 11.1109 14.9887 11.1109C16.9973 11.1109 18.6449 18.9524 18.6449 28.5965H21.5564C21.5564 18.9298 23.204 11.1109 25.2127 11.1109Z" fill="#FDBB20"/>
</g>
<defs>
<clipPath id="clip0_18814_2438">
<rect width="26.3162" height="20.7078" fill="white" transform="translate(8.4209 9.64624)"/>
</clipPath>
</defs>
</svg>
