<svg width="40" height="41" viewBox="0 0 40 41" fill="none" xmlns="http://www.w3.org/2000/svg">
<rect width="40" height="40.1408" rx="20" fill="#F8F8F8"/>
<rect x="0.0704225" y="0.0704225" width="39.8592" height="40" rx="19.9296" stroke="#0B0B0A" stroke-opacity="0.15" stroke-width="0.140845"/>
<path fill-rule="evenodd" clip-rule="evenodd" d="M30.2725 15.4961C31.4573 15.4636 32.6345 15.7009 33.7148 16.1895L33.668 18.2442H33.667C32.6734 17.5414 31.4893 17.1585 30.2725 17.1455C28.6059 17.0825 27.1992 18.3712 27.1172 20.0361C27.1172 21.4221 28.0254 22.999 30.2725 22.999C32.5062 22.999 33.6061 21.9365 33.6191 21.9238L33.6436 23.9785C33.6436 23.9785 32.5676 24.6475 30.2725 24.6475C27.9774 24.6473 25.0137 23.3345 25.0137 20.084C25.0137 17.0257 27.8333 15.4963 30.2725 15.4961ZM15.6914 17.5986H12.1289V24.3613H9.95312V17.5986H6.3916V15.7588H15.6914V17.5986ZM18.8945 15.7588V19.3672L22.6719 15.7588H25.4443L21.1416 19.7969L25.4443 24.3613H22.6719L18.8945 20.3223V24.3613H16.7188V15.7588H18.8945Z" fill="#067799"/>
</svg>
