<svg width="24" height="24" viewBox="0 0 24 24" fill="none" xmlns="http://www.w3.org/2000/svg">
<path d="M11.8047 16.6318C12.0569 16.6319 12.307 16.6828 12.54 16.7793C12.773 16.8759 12.9848 17.017 13.1631 17.1953L11.8047 18.5537L10.4453 17.1953C10.6238 17.0169 10.8362 16.8759 11.0693 16.7793C11.3024 16.6828 11.5524 16.6318 11.8047 16.6318Z" fill="#141410"/>
<path d="M11.8047 12.8828C12.5493 12.8829 13.2867 13.0295 13.9746 13.3145C14.6627 13.5995 15.2888 14.0173 15.8154 14.5439L14.7539 15.6045C14.3666 15.2172 13.9064 14.9098 13.4004 14.7002C12.8945 14.4907 12.3523 14.3829 11.8047 14.3828C11.2569 14.3828 10.7141 14.4906 10.208 14.7002C9.70191 14.9098 9.24186 15.2172 8.85449 15.6045L7.79395 14.5439C8.32053 14.0174 8.94581 13.5995 9.63379 13.3145C10.3219 13.0295 11.0599 12.8828 11.8047 12.8828Z" fill="#141410"/>
<path d="M11.8047 9.13281C13.0418 9.13287 14.2672 9.37617 15.4102 9.84961C16.5531 10.3231 17.592 11.0168 18.4668 11.8916L17.4062 12.9531C16.6707 12.2176 15.7969 11.6335 14.8359 11.2354C13.8751 10.8374 12.8447 10.6329 11.8047 10.6328C10.7645 10.6328 9.7335 10.8373 8.77246 11.2354C7.81151 11.6335 6.93765 12.2176 6.20215 12.9531L5.1416 11.8926C6.01642 11.0178 7.05525 10.3231 8.19824 9.84961C9.34136 9.37612 10.5674 9.13281 11.8047 9.13281Z" fill="#141410"/>
<path d="M11.8047 5.38281C13.5344 5.38287 15.2477 5.72383 16.8457 6.38574C18.4434 7.04765 19.8953 8.01741 21.1182 9.24023L20.0576 10.3008C18.9738 9.21705 17.6865 8.35704 16.2705 7.77051C14.8547 7.18413 13.3372 6.88287 11.8047 6.88281C10.2719 6.88281 8.75306 7.1849 7.33691 7.77148C5.92104 8.35807 4.63448 9.21806 3.55078 10.3018L2.49023 9.24121C3.71337 8.01808 5.16558 7.04771 6.76367 6.38574C8.3618 5.72378 10.0749 5.38281 11.8047 5.38281Z" fill="#141410"/>
</svg>
