<svg width="24" height="24" viewBox="0 0 24 24" fill="none" xmlns="http://www.w3.org/2000/svg">
<path d="M14.25 19.5H11.25V15.75H14.25V19.5Z" fill="#141410"/>
<path d="M18 19.5H15V15.75H18V19.5Z" fill="#141410"/>
<path d="M14.25 15H11.25V11.25H14.25V15Z" fill="#141410"/>
<path d="M18 15H15V11.25H18V15Z" fill="#141410"/>
<path fill-rule="evenodd" clip-rule="evenodd" d="M14.5862 1.50732C14.8799 1.54065 15.1508 1.68847 15.3376 1.92188L20.7532 8.69165C20.9128 8.89113 21 9.13932 21 9.39478V21.375C21 21.9963 20.4963 22.5 19.875 22.5H4.125C3.50368 22.5 3 21.9963 3 21.375V2.625C3 2.00368 3.50368 1.5 4.125 1.5H14.4595L14.5862 1.50732ZM4.5 21H19.5V9.52588L14.2793 3H4.5V21Z" fill="#141410"/>
</svg>
