<svg width="24" height="24" viewBox="0 0 24 24" fill="none" xmlns="http://www.w3.org/2000/svg">
<path d="M12 14.25C16.7091 14.25 21 17.6974 21 22.5H19.5C19.5 18.6959 16.0616 15.75 12 15.75C7.93837 15.75 4.5 18.6959 4.5 22.5H3C3 17.6974 7.29087 14.25 12 14.25Z" fill="#141410"/>
<path fill-rule="evenodd" clip-rule="evenodd" d="M12 2C14.8995 2 17.25 4.35051 17.25 7.25C17.25 10.1495 14.8995 12.5 12 12.5C9.1005 12.5 6.75 10.1495 6.75 7.25C6.75 4.35051 9.1005 2 12 2ZM12 3.5C9.92893 3.5 8.25 5.17893 8.25 7.25C8.25 9.32107 9.92893 11 12 11C14.0711 11 15.75 9.32107 15.75 7.25C15.75 5.17893 14.0711 3.5 12 3.5Z" fill="#141410"/>
</svg>
