<svg width="24" height="24" viewBox="0 0 24 24" fill="none" xmlns="http://www.w3.org/2000/svg">
<path fill-rule="evenodd" clip-rule="evenodd" d="M8.625 18C9.66053 18 10.5 18.8395 10.5 19.875C10.5 20.9105 9.66053 21.75 8.625 21.75C7.58947 21.75 6.75 20.9105 6.75 19.875C6.75 18.8395 7.58947 18 8.625 18ZM8.625 19.5C8.41789 19.5 8.25 19.6679 8.25 19.875C8.25 20.0821 8.41789 20.25 8.625 20.25C8.83211 20.25 9 20.0821 9 19.875C9 19.6679 8.83211 19.5 8.625 19.5Z" fill="#141410"/>
<path fill-rule="evenodd" clip-rule="evenodd" d="M16.125 18C17.1605 18 18 18.8395 18 19.875C18 20.9105 17.1605 21.75 16.125 21.75C15.0895 21.75 14.25 20.9105 14.25 19.875C14.25 18.8395 15.0895 18 16.125 18ZM16.125 19.5C15.9179 19.5 15.75 19.6679 15.75 19.875C15.75 20.0821 15.9179 20.25 16.125 20.25C16.3321 20.25 16.5 20.0821 16.5 19.875C16.5 19.6679 16.3321 19.5 16.125 19.5Z" fill="#141410"/>
<path fill-rule="evenodd" clip-rule="evenodd" d="M3.0249 3.75C3.68253 3.7501 4.26322 4.17861 4.45752 4.80688L5.12476 6.96533H19.2334C20.2433 6.9655 20.9643 7.94355 20.666 8.90845L18.4146 16.1931C18.2203 16.8215 17.639 17.25 16.9812 17.25H7.84058C7.18281 17.25 6.6015 16.8215 6.40723 16.1931L3.0249 5.25H0.75V3.75H3.0249ZM7.84058 15.75H16.9812L19.2334 8.46533H5.58838L7.84058 15.75Z" fill="#141410"/>
</svg>
