<svg width="24" height="24" viewBox="0 0 24 24" fill="none" xmlns="http://www.w3.org/2000/svg">
<path fill-rule="evenodd" clip-rule="evenodd" d="M15.75 0.75C17.8211 0.75 19.5 2.42893 19.5 4.5V19.5C19.5 21.5711 17.8211 23.25 15.75 23.25H8.25C6.17893 23.25 4.5 21.5711 4.5 19.5V4.5C4.5 2.42893 6.17893 0.75 8.25 0.75H15.75ZM8.25 2.25C7.00736 2.25 6 3.25736 6 4.5V19.5C6 20.7426 7.00736 21.75 8.25 21.75H15.75C16.9926 21.75 18 20.7426 18 19.5V4.5C18 3.25736 16.9926 2.25 15.75 2.25H8.25Z" fill="#141410"/>
<path d="M16.75 4.25V19.75H7.25V4.25H16.75ZM8.75 18.25H15.25V5.75H8.75V18.25Z" fill="#141410"/>
</svg>
