<svg width="24" height="24" viewBox="0 0 24 24" fill="none" xmlns="http://www.w3.org/2000/svg">
<path d="M8.4375 10.5C8.95527 10.5 9.375 10.9197 9.375 11.4375C9.375 11.9553 8.95527 12.375 8.4375 12.375C7.91973 12.375 7.5 11.9553 7.5 11.4375C7.5 10.9197 7.91973 10.5 8.4375 10.5Z" fill="#141410"/>
<path d="M11.8125 10.5C12.3303 10.5 12.75 10.9197 12.75 11.4375C12.75 11.9553 12.3303 12.375 11.8125 12.375C11.2947 12.375 10.875 11.9553 10.875 11.4375C10.875 10.9197 11.2947 10.5 11.8125 10.5Z" fill="#141410"/>
<path d="M15.1875 10.5C15.7053 10.5 16.125 10.9197 16.125 11.4375C16.125 11.9553 15.7053 12.375 15.1875 12.375C14.6697 12.375 14.25 11.9553 14.25 11.4375C14.25 10.9197 14.6697 10.5 15.1875 10.5Z" fill="#141410"/>
<path fill-rule="evenodd" clip-rule="evenodd" d="M21.375 4.65234V12.4709L21.3713 12.7017C21.2983 15.08 20.0995 17.2883 18.1333 18.6445L12 22.875L5.8667 18.6445C3.90048 17.2883 2.70173 15.08 2.62866 12.7017L2.625 12.4709V4.65234L12 1.125L21.375 4.65234ZM4.125 5.68945V12.4709C4.12505 14.4435 5.09476 16.2897 6.71851 17.4097L12 21.052L17.2815 17.4097C18.9052 16.2897 19.875 14.4435 19.875 12.4709V5.68945L12 2.72754L4.125 5.68945Z" fill="#141410"/>
</svg>
