<svg width="24" height="24" viewBox="0 0 24 24" fill="none" xmlns="http://www.w3.org/2000/svg">
<path d="M12 12.375C14.1927 12.375 16.125 13.9733 16.125 16.125H14.625C14.625 14.963 13.5352 13.875 12 13.875C10.4648 13.875 9.375 14.963 9.375 16.125H7.875C7.875 13.9733 9.80731 12.375 12 12.375Z" fill="#141410"/>
<path fill-rule="evenodd" clip-rule="evenodd" d="M12 6C13.4497 6 14.625 7.17525 14.625 8.625C14.625 10.0747 13.4497 11.25 12 11.25C10.5503 11.25 9.375 10.0747 9.375 8.625C9.375 7.17525 10.5503 6 12 6ZM12 7.5C11.3787 7.5 10.875 8.00368 10.875 8.625C10.875 9.24632 11.3787 9.75 12 9.75C12.6213 9.75 13.125 9.24632 13.125 8.625C13.125 8.00368 12.6213 7.5 12 7.5Z" fill="#141410"/>
<path fill-rule="evenodd" clip-rule="evenodd" d="M21.375 4.65234V12.4709L21.3713 12.7017C21.2983 15.08 20.0995 17.2883 18.1333 18.6445L12 22.875L5.8667 18.6445C3.90048 17.2883 2.70173 15.08 2.62866 12.7017L2.625 12.4709V4.65234L12 1.125L21.375 4.65234ZM4.125 5.68945V12.4709C4.12505 14.4435 5.09476 16.2897 6.71851 17.4097L12 21.052L17.2815 17.4097C18.9052 16.2897 19.875 14.4435 19.875 12.4709V5.68945L12 2.72754L4.125 5.68945Z" fill="#141410"/>
</svg>
