<svg width="24" height="24" viewBox="0 0 24 24" fill="none" xmlns="http://www.w3.org/2000/svg">
<path d="M4.5 19.5H9.75V21H3V14.25H4.5V19.5Z" fill="#141410"/>
<path d="M21 21H14.25V19.5H19.5V14.25H21V21Z" fill="#141410"/>
<path d="M12 10.125C13.0355 10.125 13.875 10.9645 13.875 12C13.875 13.0355 13.0355 13.875 12 13.875C10.9645 13.875 10.125 13.0355 10.125 12C10.125 10.9645 10.9645 10.125 12 10.125Z" fill="#141410"/>
<path d="M9.75 4.5H4.5V9.75H3V3H9.75V4.5Z" fill="#141410"/>
<path d="M21 9.75H19.5V4.5H14.25V3H21V9.75Z" fill="#141410"/>
</svg>
