<svg width="24" height="24" viewBox="0 0 24 24" fill="none" xmlns="http://www.w3.org/2000/svg">
<path fill-rule="evenodd" clip-rule="evenodd" d="M12.1296 6.16406C12.8122 6.16406 13.4395 6.27084 14.0112 6.48413C14.5915 6.68893 15.0909 6.992 15.509 7.39307C15.9357 7.78559 16.2645 8.26325 16.4949 8.82642C16.7253 9.38108 16.8406 10.0129 16.8406 10.7212C16.8406 11.1136 16.7931 11.5018 16.6992 11.8857C16.6054 12.2697 16.4604 12.6196 16.2642 12.9353C16.0764 13.251 15.8372 13.5027 15.5471 13.6904C15.257 13.8695 14.9156 13.9592 14.5232 13.9592C14.2076 13.9592 13.93 13.8867 13.6912 13.7417C13.4523 13.5881 13.2862 13.3917 13.1924 13.1528H13.0898C12.9192 13.3662 12.6886 13.5539 12.3984 13.7161C12.1169 13.8781 11.7755 13.9592 11.3745 13.9592C10.6151 13.9592 10.026 13.7332 9.60791 13.281C9.19842 12.8203 8.99419 12.2185 8.99414 11.4763C8.99414 10.9046 9.11728 10.4005 9.36475 9.96533C9.61215 9.52176 9.96223 9.17639 10.4143 8.92896C10.8666 8.67296 11.4003 8.54517 12.0146 8.54517C12.4157 8.54517 12.8295 8.58337 13.2561 8.66016C13.6913 8.72842 14.0286 8.8048 14.2676 8.89014L14.1394 11.5144C14.1309 11.5997 14.127 11.6894 14.127 11.7832V11.9495C14.127 12.2992 14.1738 12.5338 14.2676 12.6533C14.3699 12.7642 14.4807 12.8203 14.6001 12.8203C14.7964 12.8203 14.9584 12.726 15.0864 12.5383C15.2144 12.3421 15.3087 12.0864 15.3684 11.7708C15.4367 11.4465 15.4709 11.092 15.4709 10.708C15.4709 9.99123 15.3253 9.38506 15.0352 8.89014C14.7451 8.38687 14.3483 8.00324 13.845 7.73877C13.3501 7.47426 12.7828 7.34182 12.1428 7.3418C11.4688 7.3418 10.8757 7.44858 10.3638 7.66187C9.85177 7.8752 9.42018 8.17362 9.07031 8.55762C8.72052 8.94158 8.45628 9.39433 8.2771 9.91479C8.1065 10.4352 8.02075 11.0027 8.02075 11.6169C8.02076 12.3849 8.15785 13.0379 8.43091 13.5754C8.7125 14.1044 9.11774 14.5058 9.64673 14.7788C10.1842 15.0518 10.8413 15.1882 11.6177 15.1882C12.1126 15.1882 12.6291 15.1329 13.1667 15.022C13.7043 14.911 14.1952 14.7739 14.6389 14.6118V15.8152C14.2294 15.9858 13.7727 16.1222 13.2693 16.2246C12.7658 16.327 12.2321 16.3784 11.6689 16.3784C10.6109 16.3784 9.70623 16.1906 8.95532 15.8152C8.20446 15.4397 7.62858 14.9021 7.22754 14.2024C6.83502 13.4941 6.63867 12.6449 6.63867 11.655C6.6387 10.8787 6.76653 10.1577 7.02246 9.49219C7.27845 8.82662 7.64546 8.24614 8.12329 7.75122C8.60967 7.24778 9.19016 6.85974 9.86426 6.58667C10.5383 6.3051 11.2935 6.16409 12.1296 6.16406ZM12.0916 9.68408C11.6906 9.68408 11.3663 9.77375 11.1189 9.95288C10.88 10.1235 10.7047 10.3495 10.5938 10.6311C10.4913 10.9042 10.4399 11.1948 10.4399 11.502C10.44 11.971 10.5383 12.3079 10.7344 12.5127C10.9306 12.7174 11.191 12.8202 11.5151 12.8203C11.9417 12.8203 12.2409 12.6667 12.4116 12.3596C12.5908 12.0439 12.6975 11.634 12.7317 11.1306L12.8086 9.7478C12.7148 9.73075 12.6079 9.71825 12.4885 9.70972C12.3691 9.69265 12.2366 9.68408 12.0916 9.68408Z" fill="#141410"/>
<path fill-rule="evenodd" clip-rule="evenodd" d="M21.375 4.65234V12.4709L21.3713 12.7017C21.2983 15.08 20.0995 17.2883 18.1333 18.6445L12 22.875L5.8667 18.6445C3.90048 17.2883 2.70173 15.08 2.62866 12.7017L2.625 12.4709V4.65234L12 1.125L21.375 4.65234ZM4.125 5.68945V12.4709C4.12505 14.4435 5.09476 16.2897 6.71851 17.4097L12 21.052L17.2815 17.4097C18.9052 16.2897 19.875 14.4435 19.875 12.4709V5.68945L12 2.72754L4.125 5.68945Z" fill="#141410"/>
</svg>
