<svg width="24" height="24" viewBox="0 0 24 24" fill="none" xmlns="http://www.w3.org/2000/svg">
<path d="M12.7778 7.25098C14.041 7.51491 14.831 8.4213 14.8535 9.69507H13.1953C13.1276 8.96066 12.6764 8.54736 11.9546 8.54736C11.2668 8.54746 10.8611 8.88041 10.8611 9.4541C10.8611 10.0393 11.2331 10.2803 12.5977 10.5557C14.2443 10.877 15 11.5885 15 12.8049C15 14.1016 14.1312 15.0425 12.7778 15.2834V16.5H11.3687V15.2834C9.92505 15.0425 9.02257 14.0557 9 12.6328H10.6582C10.7146 13.4705 11.2669 13.9753 12.1128 13.9753C12.8683 13.9753 13.308 13.6312 13.3081 13.0232C13.3081 12.415 12.9586 12.1741 11.5378 11.8872C9.89133 11.543 9.18026 10.8657 9.18018 9.60352C9.18018 8.34122 10.0378 7.42311 11.3687 7.21655V6H12.7778V7.25098Z" fill="#141410"/>
<path fill-rule="evenodd" clip-rule="evenodd" d="M21.375 4.65234V12.4709L21.3713 12.7017C21.2983 15.08 20.0995 17.2883 18.1333 18.6445L12 22.875L5.8667 18.6445C3.90048 17.2883 2.70173 15.08 2.62866 12.7017L2.625 12.4709V4.65234L12 1.125L21.375 4.65234ZM4.125 5.68945V12.4709C4.12505 14.4435 5.09476 16.2897 6.71851 17.4097L12 21.052L17.2815 17.4097C18.9052 16.2897 19.875 14.4435 19.875 12.4709V5.68945L12 2.72754L4.125 5.68945Z" fill="#141410"/>
</svg>
