<svg width="24" height="24" viewBox="0 0 24 24" fill="none" xmlns="http://www.w3.org/2000/svg">
<path fill-rule="evenodd" clip-rule="evenodd" d="M12 2.25C17.3848 2.25 21.75 6.61522 21.75 12C21.75 17.3848 17.3848 21.75 12 21.75C6.61522 21.75 2.25 17.3848 2.25 12C2.25 6.61522 6.61522 2.25 12 2.25ZM5.26099 16.7563C6.75496 18.8692 9.21547 20.25 12 20.25C16.5563 20.25 20.25 16.5563 20.25 12C20.25 10.7646 19.9764 9.59362 19.4897 8.5415L5.26099 16.7563ZM12 3.75C7.44365 3.75 3.75 7.44365 3.75 12C3.75 13.235 4.02314 14.4059 4.50952 15.4578L18.7383 7.24292C17.2443 5.13053 14.7842 3.75 12 3.75Z" fill="#141410"/>
</svg>
