<svg width="24" height="24" viewBox="0 0 24 24" fill="none" xmlns="http://www.w3.org/2000/svg">
<path d="M6.65552 11.0508L7.91895 10.3228L8.46313 11.2646L7.19824 11.9941L8.46313 12.7251L7.91895 13.667L6.65552 12.936V14.4023H5.56787V12.9346L4.29419 13.6714L3.75 12.7295L5.02222 11.9941L3.75 11.2603L4.29419 10.3184L5.56787 11.0522V9.58887H6.65552V11.0508Z" fill="#141410"/>
<path d="M12.5493 11.0508L13.8127 10.3228L14.3569 11.2646L13.0913 11.9941L14.3569 12.7251L13.8127 13.667L12.5493 12.936V14.4023H11.4609V12.9346L10.1873 13.6714L9.64307 12.7295L10.9153 11.9941L9.64307 11.2603L10.1873 10.3184L11.4609 11.0522V9.58887H12.5493V11.0508Z" fill="#141410"/>
<path d="M18.4424 11.0508L19.7058 10.3228L20.25 11.2646L18.9851 11.9941L20.25 12.7251L19.7058 13.667L18.4424 12.936V14.4023H17.354V12.9346L16.0811 13.6714L15.5369 12.7295L16.8091 11.9941L15.5369 11.2603L16.0811 10.3184L17.354 11.0522V9.58887H18.4424V11.0508Z" fill="#141410"/>
<path fill-rule="evenodd" clip-rule="evenodd" d="M21.3896 2.25C22.4169 2.25 23.25 3.08307 23.25 4.11035V19.8896C23.25 20.9169 22.4169 21.75 21.3896 21.75H2.61035C1.58307 21.75 0.750001 20.9169 0.75 19.8896V4.11035C0.75 3.08307 1.58307 2.25 2.61035 2.25H21.3896ZM2.61035 3.75C2.4115 3.75 2.25 3.9115 2.25 4.11035V19.8896C2.25 20.0885 2.4115 20.25 2.61035 20.25H21.3896C21.5885 20.25 21.75 20.0885 21.75 19.8896V4.11035C21.75 3.9115 21.5885 3.75 21.3896 3.75H2.61035Z" fill="#141410"/>
</svg>
