<svg width="24" height="24" viewBox="0 0 24 24" fill="none" xmlns="http://www.w3.org/2000/svg">
<path fill-rule="evenodd" clip-rule="evenodd" d="M12 2.25C17.3848 2.25 21.75 6.61522 21.75 12C21.75 17.3848 17.3848 21.75 12 21.75C6.61522 21.75 2.25 17.3848 2.25 12C2.25 6.61522 6.61522 2.25 12 2.25ZM14.562 16.3674C13.7424 16.4544 12.8817 16.5 12 16.5C11.118 16.5 10.2571 16.4544 9.43726 16.3674C9.54505 16.8596 9.66975 17.3166 9.81079 17.7305C10.062 18.4672 10.3675 19.0835 10.719 19.5198C11.0686 19.9534 11.499 20.25 12 20.25C12.501 20.25 12.9306 19.9534 13.2803 19.5198C13.6319 19.0835 13.938 18.4674 14.1892 17.7305C14.3302 17.3167 14.4542 16.8596 14.562 16.3674ZM4.29785 14.9575C5.13413 17.134 6.86536 18.8649 9.04175 19.7014C8.7825 19.2414 8.56846 18.7341 8.39136 18.2146C8.17839 17.5898 7.99941 16.8917 7.85962 16.1396C7.10792 15.9999 6.40997 15.8215 5.7854 15.6086C5.26558 15.4314 4.75814 15.217 4.29785 14.9575ZM19.7021 14.9561C19.2417 15.2157 18.7347 15.4313 18.2146 15.6086C17.5898 15.8216 16.8916 15.9999 16.1396 16.1396C15.9999 16.8916 15.8216 17.5898 15.6086 18.2146C15.4315 18.7342 15.2168 19.2413 14.9575 19.7014C17.1346 18.8648 18.866 17.1334 19.7021 14.9561ZM12 9C11.0075 9 10.0548 9.06061 9.17285 9.17285C9.06061 10.0548 9 11.0075 9 12C9 12.9923 9.06067 13.9447 9.17285 14.8264C10.0548 14.9387 11.0074 15 12 15C12.9923 15 13.9446 14.9386 14.8264 14.8264C14.9386 13.9446 15 12.9923 15 12C15 11.0074 14.9387 10.0548 14.8264 9.17285C13.9447 9.06067 12.9923 9 12 9ZM7.63184 9.43726C7.13991 9.54501 6.68316 9.66981 6.26953 9.81079C5.53276 10.062 4.9165 10.3675 4.48022 10.719C4.0466 11.0686 3.75 11.499 3.75 12C3.75 12.501 4.0466 12.9306 4.48022 13.2803C4.91652 13.6319 5.53256 13.938 6.26953 14.1892C6.68312 14.3302 7.13997 14.4543 7.63184 14.562C7.54488 13.7424 7.5 12.8817 7.5 12C7.5 11.1181 7.54483 10.2571 7.63184 9.43726ZM16.3674 9.43726C16.4544 10.2571 16.5 11.118 16.5 12C16.5 12.8817 16.4544 13.7424 16.3674 14.562C16.8596 14.4542 17.3167 14.3302 17.7305 14.1892C18.4676 13.9379 19.0842 13.6319 19.5205 13.2803C19.9539 12.9307 20.25 12.5009 20.25 12C20.25 11.499 19.9534 11.0694 19.5198 10.7197C19.0835 10.3681 18.4674 10.062 17.7305 9.81079C17.3166 9.66975 16.8596 9.54505 16.3674 9.43726ZM9.04175 4.29785C6.86546 5.13425 5.13425 6.86546 4.29785 9.04175C4.75806 8.78236 5.2657 8.56853 5.7854 8.39136C6.41001 8.17846 7.10787 7.99939 7.85962 7.85962C7.99939 7.10786 8.17846 6.41001 8.39136 5.7854C8.56853 5.2657 8.78236 4.75806 9.04175 4.29785ZM14.9561 4.29712C15.2159 4.75769 15.4313 5.26513 15.6086 5.7854C15.8215 6.40997 15.9999 7.10791 16.1396 7.85962C16.8917 7.99941 17.5898 8.17839 18.2146 8.39136C18.7341 8.56846 19.2414 8.7825 19.7014 9.04175C18.8647 6.86485 17.1333 5.13317 14.9561 4.29712ZM12 3.75C11.499 3.75 11.0694 4.0466 10.7197 4.48022C10.3681 4.91652 10.062 5.53256 9.81079 6.26953C9.66981 6.68316 9.54501 7.13991 9.43726 7.63184C10.2571 7.54483 11.1181 7.5 12 7.5C12.8817 7.5 13.7424 7.54488 14.562 7.63184C14.4543 7.13997 14.3302 6.68312 14.1892 6.26953C13.9379 5.53244 13.6319 4.9158 13.2803 4.47949C12.9307 4.04606 12.5009 3.75 12 3.75Z" fill="#141410"/>
</svg>
