<svg width="24" height="24" viewBox="0 0 24 24" fill="none" xmlns="http://www.w3.org/2000/svg">
<path d="M15.5859 10.218L12.5332 14.0376C11.9654 14.7477 10.9099 14.816 10.2554 14.1848L8.47925 12.4724L9.52075 11.3928L11.2969 13.1052C11.3156 13.1231 11.3459 13.1211 11.3621 13.1008L14.4141 9.28198L15.5859 10.218Z" fill="#141410"/>
<path fill-rule="evenodd" clip-rule="evenodd" d="M21 4.90576V12.3318L20.9963 12.5618C20.9237 14.9333 19.7321 17.1369 17.7751 18.4944L12 22.5L6.22485 18.4944C4.26791 17.1369 3.07631 14.9333 3.00366 12.5618L3 12.3318V4.90576L12 1.5L21 4.90576ZM4.5 5.94141V12.3318C4.50007 14.2986 5.46427 16.1407 7.08032 17.2617L12 20.6741L16.9197 17.2617C18.5357 16.1407 19.4999 14.2986 19.5 12.3318V5.94141L12 3.10327L4.5 5.94141Z" fill="#141410"/>
</svg>
