<svg width="24" height="24" viewBox="0 0 24 24" fill="none" xmlns="http://www.w3.org/2000/svg">
<path d="M12 10.875C12.8284 10.875 13.5 11.5466 13.5 12.375C13.5 12.9622 13.1617 13.4691 12.6702 13.7153L13.9739 16.3228C14.1006 16.5765 13.9162 16.8749 13.6326 16.875H10.3674C10.0838 16.8749 9.8994 16.5765 10.0261 16.3228L11.3291 13.7153C10.8378 13.469 10.5 12.962 10.5 12.375C10.5 11.5466 11.1716 10.875 12 10.875Z" fill="#141410"/>
<path fill-rule="evenodd" clip-rule="evenodd" d="M12 0.75C14.8417 0.75 17.2498 2.88999 17.25 5.65356V6.43359H22.5V21.4336H1.5V6.43359H6.75V5.65356C6.75016 2.88999 9.15826 0.75 12 0.75ZM3 19.9336H21V7.93359H3V19.9336ZM12 2.25C9.87139 2.25 8.25017 3.82919 8.25 5.65356V6.43359H15.75V5.65356C15.7498 3.82919 14.1286 2.25 12 2.25Z" fill="#141410"/>
</svg>
